<svg width="16" height="16" viewBox="0 0 16 16" fill="none" xmlns="http://www.w3.org/2000/svg">
<path d="M8.00001 14.6667C11.6819 14.6667 14.6667 11.6819 14.6667 8.00004C14.6667 4.31814 11.6819 1.33337 8.00001 1.33337C4.31811 1.33337 1.33334 4.31814 1.33334 8.00004C1.33334 11.6819 4.31811 14.6667 8.00001 14.6667Z" fill="#757575"/>
<path d="M8.00001 10.6667L10.6667 8.00004L8.00001 5.33337" fill="#1C274C"/>
<path d="M8.00001 10.6667L10.6667 8.00004M10.6667 8.00004L8.00001 5.33337M10.6667 8.00004H5.33334M14.6667 8.00004C14.6667 11.6819 11.6819 14.6667 8.00001 14.6667C4.31811 14.6667 1.33334 11.6819 1.33334 8.00004C1.33334 4.31814 4.31811 1.33337 8.00001 1.33337C11.6819 1.33337 14.6667 4.31814 14.6667 8.00004Z" stroke="#FFF" stroke-linecap="round" stroke-linejoin="round"/>
</svg>

